<svg width="676" height="167" viewBox="0 0 676 167" fill="none" xmlns="http://www.w3.org/2000/svg">
<path d="M64.0072 5.55289L21.5673 5.55289C11.0527 5.55289 2.52887 14.0767 2.52887 24.5914V59.4952" stroke="#7371EE" stroke-width="3.96635"/>
<path d="M154.837 5.55289H119.933C109.418 5.55289 100.894 14.0767 100.894 24.5914V154.291" stroke="#7371EE" stroke-width="3.96635"/>
<path d="M253.202 5.55289H218.298C207.783 5.55289 199.26 14.0767 199.26 24.5913V154.687" stroke="#7371EE" stroke-width="3.96635"/>
<path d="M74.7163 137.236L74.7163 102.332C74.7163 91.8171 66.1925 83.2933 55.6778 83.2933L20.774 83.2933" stroke="#7371EE" stroke-width="3.96635"/>
<path d="M173.082 59.4952L173.082 24.5913C173.082 14.0767 164.558 5.55289 154.043 5.55289L119.139 5.55288" stroke="#7371EE" stroke-width="3.96635"/>
<path d="M271.447 59.4952L271.447 24.5913C271.447 14.0767 262.923 5.55289 252.409 5.55289L217.505 5.55288" stroke="#7371EE" stroke-width="3.96635"/>
<path d="M2.52887 29.351L2.52887 64.2548C2.52887 74.7695 11.0527 83.2933 21.5673 83.2933L56.4712 83.2933" stroke="#7371EE" stroke-width="3.96635"/>
<path d="M13.2379 159.447L55.6778 159.447C66.1925 159.447 74.7163 150.923 74.7163 140.409L74.7163 105.505" stroke="#7371EE" stroke-width="3.96635"/>
<path d="M119.139 86.4663L154.043 86.4663C164.558 86.4663 173.082 77.9425 173.082 67.4279L173.082 32.524" stroke="#7371EE" stroke-width="3.96635"/>
<path d="M217.505 86.4663L252.409 86.4663C262.923 86.4663 271.447 77.9425 271.447 67.4279L271.447 32.524" stroke="#7371EE" stroke-width="3.96635"/>
<path d="M271.447 154.687L271.447 105.505C271.447 94.9902 262.923 86.4663 252.409 86.4663L217.505 86.4663" stroke="#7371EE" stroke-width="3.96635"/>
<circle cx="69.1635" cy="5.55288" r="3.56971" stroke="#7371EE" stroke-width="3.96635"/>
<circle cx="100.894" cy="159.447" r="3.56971" stroke="#7371EE" stroke-width="3.96635"/>
<circle cx="199.26" cy="159.447" r="3.56971" stroke="#7371EE" stroke-width="3.96635"/>
<circle cx="271.447" cy="159.447" r="3.56971" stroke="#7371EE" stroke-width="3.96635"/>
<circle cx="8.08175" cy="159.447" r="3.56971" stroke="#7371EE" stroke-width="3.96635"/>
<path d="M127.072 78.5337L119.139 86.4663L127.072 94.3989" stroke="#7371EE" stroke-width="3.96635"/>
<path d="M225.437 78.5337L217.505 86.4663L225.437 94.3989" stroke="#7371EE" stroke-width="3.96635"/>
<path d="M373.105 43.55C381.575 43.55 387.075 39.37 387.075 32.605C387.075 26.5 383.335 23.09 376.79 21.77L370.63 20.56C367.165 19.845 364.965 18.03 364.965 14.895C364.965 11.21 368.32 8.46 373.325 8.46H373.875C378.77 8.46 382.4 11.32 382.73 15.94H387.68C387.405 8.57 382.015 3.95 373.6 3.95C365.295 3.95 360.015 8.9 360.015 14.95C360.015 20.89 363.535 24.245 369.585 25.51L375.745 26.775C380.035 27.655 382.125 29.525 382.125 32.825C382.125 36.29 379.21 39.04 373.82 39.04H373.27C367.275 39.04 363.04 36.125 363.04 30.735H358.09C358.255 39.095 363.975 43.55 373.105 43.55ZM401.983 43.55C406.658 43.55 409.738 41.02 410.893 37.775V43H415.568V15.5H410.893V30.35C410.893 36.125 407.318 39.59 403.633 39.59H403.138C399.178 39.59 397.253 37.225 397.253 32.55V15.5H392.578V33.65C392.578 39.425 395.823 43.55 401.983 43.55ZM427.084 54V38.985C428.514 41.625 432.034 43.55 435.829 43.55C442.759 43.55 448.149 38.215 448.149 29.25C448.149 20.285 443.144 14.95 436.159 14.95C432.419 14.95 428.514 16.875 427.084 19.515V15.5H422.409V54H427.084ZM435.169 39.59C430.604 39.59 427.084 35.63 427.084 29.25C427.084 22.87 430.604 18.91 435.169 18.91H435.554C440.284 18.91 443.474 22.87 443.474 29.25C443.474 35.63 440.284 39.59 435.554 39.59H435.169ZM464.362 43.55C470.027 43.55 474.647 40.47 475.692 34.97H471.017C470.302 38.105 467.772 39.59 464.747 39.59H464.307C460.567 39.59 456.552 36.675 456.332 29.91H475.747V27.16C475.747 20.01 471.292 14.95 464.252 14.95C457.817 14.95 451.657 19.625 451.657 29.195C451.657 38.765 457.542 43.55 464.362 43.55ZM456.552 26.115C457.487 20.67 460.952 18.91 464.032 18.91H464.472C468.047 18.91 470.852 21.33 471.072 26.115H456.552ZM485.712 43V29.25C485.712 23.31 488.792 19.68 493.852 19.68H496.052V15.225H493.577C489.947 15.225 486.592 17.425 485.437 21.605V15.5H481.037V43H485.712Z" fill="#7371EE"/>
<path d="M366.01 99V83.6H377.01C383.995 83.6 389.33 79.475 389.33 72.05C389.33 64.625 383.995 60.5 377.01 60.5H361.06V99H366.01ZM366.01 65.01H376.185C381.3 65.01 384.38 67.375 384.38 72.05C384.38 76.725 381.3 79.09 376.185 79.09H366.01V65.01ZM402.949 99.55C407.624 99.55 410.704 97.02 411.859 93.775V99H416.534V71.5H411.859V86.35C411.859 92.125 408.284 95.59 404.599 95.59H404.104C400.144 95.59 398.219 93.225 398.219 88.55V71.5H393.544V89.65C393.544 95.425 396.789 99.55 402.949 99.55ZM428.05 99V60.5H423.375V99H428.05ZM439.506 99V60.5H434.831V99H439.506ZM463.947 99V83.325H478.357C480.942 83.325 481.767 84.15 481.767 86.735V99H486.717V85.8C486.717 81.95 485.287 80.465 481.107 80.465C484.627 79.255 487.267 75.68 487.267 70.895C487.267 64.9 482.262 60.5 475.277 60.5H458.997V99H463.947ZM463.947 65.01H474.507C479.402 65.01 482.317 67.375 482.317 71.61C482.317 75.79 479.127 78.815 474.507 78.815H463.947V65.01ZM504.583 99.55C510.248 99.55 514.868 96.47 515.913 90.97H511.238C510.523 94.105 507.993 95.59 504.968 95.59H504.528C500.788 95.59 496.773 92.675 496.553 85.91H515.968V83.16C515.968 76.01 511.513 70.95 504.473 70.95C498.038 70.95 491.878 75.625 491.878 85.195C491.878 94.765 497.763 99.55 504.583 99.55ZM496.773 82.115C497.708 76.67 501.173 74.91 504.253 74.91H504.693C508.268 74.91 511.073 77.33 511.293 82.115H496.773ZM545.403 110V71.5H540.728V75.515C539.243 72.875 535.338 70.95 531.598 70.95C524.613 70.95 519.608 76.285 519.608 85.25C519.608 94.215 524.998 99.55 531.983 99.55C535.723 99.55 539.243 97.625 540.728 94.985V110H545.403ZM532.203 95.59C527.473 95.59 524.338 91.63 524.338 85.25C524.338 78.87 527.473 74.91 532.203 74.91H532.588C537.208 74.91 540.728 78.87 540.728 85.25C540.728 91.63 537.208 95.59 532.588 95.59H532.203ZM561.287 99.55C565.962 99.55 569.042 97.02 570.197 93.775V99H574.872V71.5H570.197V86.35C570.197 92.125 566.622 95.59 562.937 95.59H562.442C558.482 95.59 556.557 93.225 556.557 88.55V71.5H551.882V89.65C551.882 95.425 555.127 99.55 561.287 99.55ZM592.768 99.55C598.433 99.55 603.053 96.47 604.098 90.97H599.423C598.708 94.105 596.178 95.59 593.153 95.59H592.713C588.973 95.59 584.958 92.675 584.738 85.91H604.153V83.16C604.153 76.01 599.698 70.95 592.658 70.95C586.223 70.95 580.063 75.625 580.063 85.195C580.063 94.765 585.948 99.55 592.768 99.55ZM584.958 82.115C585.893 76.67 589.358 74.91 592.438 74.91H592.878C596.453 74.91 599.258 77.33 599.478 82.115H584.958ZM618.463 99.55C624.733 99.55 629.078 96.36 629.078 91.3C629.078 86.46 625.723 84.37 621.653 83.545L617.308 82.61C614.338 82.005 613.073 80.905 613.073 78.815C613.073 76.725 615.108 74.91 618.408 74.91H618.903C622.533 74.91 624.348 77.275 624.678 79.915H629.353C629.243 74.965 625.723 70.95 618.628 70.95C613.238 70.95 608.398 73.865 608.398 79.31C608.398 83.985 611.918 86.13 616.263 87.01L620.278 87.835C623.358 88.44 624.403 89.705 624.403 91.575C624.403 94.05 622.093 95.59 618.903 95.59H618.408C614.998 95.59 612.303 94.05 611.973 90.585H607.298C607.408 95.755 611.258 99.55 618.463 99.55ZM649.126 99V94.875H643.791C642.141 94.875 641.591 94.325 641.591 92.675V75.515H648.301V71.5H641.591V62.59H636.916V71.5H630.756V75.515H636.916V93.335C636.916 97.075 638.951 99 642.691 99H649.126ZM662.106 99.55C668.376 99.55 672.721 96.36 672.721 91.3C672.721 86.46 669.366 84.37 665.296 83.545L660.951 82.61C657.981 82.005 656.716 80.905 656.716 78.815C656.716 76.725 658.751 74.91 662.051 74.91H662.546C666.176 74.91 667.991 77.275 668.321 79.915H672.996C672.886 74.965 669.366 70.95 662.271 70.95C656.881 70.95 652.041 73.865 652.041 79.31C652.041 83.985 655.561 86.13 659.906 87.01L663.921 87.835C667.001 88.44 668.046 89.705 668.046 91.575C668.046 94.05 665.736 95.59 662.546 95.59H662.051C658.641 95.59 655.946 94.05 655.616 90.585H650.941C651.051 95.755 654.901 99.55 662.106 99.55Z" fill="#121314"/>
<path d="M363.6 158.22H360.8L362.186 153.46L363.6 158.22ZM364.72 162H366.12L363.11 152.2H361.29L358.28 162H359.694L360.422 159.48H363.964L364.72 162ZM378.303 162.14C380.263 162.14 381.397 160.796 381.593 158.85H380.193C380.053 160.11 379.423 160.88 378.373 160.88H378.233C376.413 160.88 375.909 159.41 375.909 157.1C375.909 154.79 376.413 153.32 378.163 153.32H378.303C379.353 153.32 380.053 154.23 380.123 155.28H381.523C381.453 153.74 380.277 152.06 378.233 152.06C375.713 152.06 374.509 153.88 374.509 157.1C374.509 160.32 375.643 162.14 378.303 162.14ZM386.124 162.14C388.084 162.14 389.484 160.74 389.484 158.5C389.484 156.33 388.014 154.86 386.124 154.86C384.234 154.86 382.764 156.33 382.764 158.5C382.764 160.74 384.164 162.14 386.124 162.14ZM386.194 161.02H386.054C384.934 161.02 384.094 160.11 384.094 158.5C384.094 156.89 384.934 155.98 386.054 155.98H386.194C387.314 155.98 388.154 156.89 388.154 158.5C388.154 160.11 387.314 161.02 386.194 161.02ZM390.626 162H391.956V157.94C391.956 156.54 392.208 155.98 392.838 155.98H392.866C393.482 155.98 393.566 156.61 393.566 157.66V162H394.896V157.94C394.896 156.54 395.218 155.98 395.778 155.98H395.806C396.576 155.98 396.506 156.61 396.506 157.66V162H397.836V157.52C397.836 155.98 397.71 154.86 396.24 154.86C395.33 154.86 395.022 155.35 394.742 156.036C394.546 155.294 394.112 154.86 393.356 154.86C392.628 154.86 392.236 155.28 391.956 156.036V155H390.626V162ZM398.601 162H399.931V157.94C399.931 156.54 400.183 155.98 400.813 155.98H400.841C401.457 155.98 401.541 156.61 401.541 157.66V162H402.871V157.94C402.871 156.54 403.193 155.98 403.753 155.98H403.781C404.551 155.98 404.481 156.61 404.481 157.66V162H405.811V157.52C405.811 155.98 405.685 154.86 404.215 154.86C403.305 154.86 402.997 155.35 402.717 156.036C402.521 155.294 402.087 154.86 401.331 154.86C400.603 154.86 400.211 155.28 399.931 156.036V155H398.601V162ZM409.557 161.02C408.913 161.02 408.437 160.586 408.437 160.012C408.437 159.368 409.025 158.976 409.837 158.906L411.587 158.766V159.48C411.587 160.32 410.537 161.02 409.697 161.02H409.557ZM409.417 162.14C410.537 162.14 411.377 161.51 411.657 160.88C411.657 160.95 411.657 161.65 411.727 162H412.987C412.917 161.51 412.917 160.88 412.917 160.46V157.52C412.917 156.092 411.937 154.86 410.075 154.86C408.493 154.86 407.331 155.742 407.247 157.03H408.577C408.661 156.33 409.291 155.98 410.047 155.98H410.117C411.027 155.98 411.587 156.54 411.587 157.52V157.744L409.655 157.898C408.521 157.996 407.107 158.472 407.107 160.068C407.107 161.258 408.087 162.14 409.417 162.14ZM415.012 162H416.342V158.22C416.342 156.82 417.252 155.98 418.162 155.98H418.302C419.282 155.98 419.772 156.54 419.772 157.66V162H421.102V157.38C421.102 155.91 420.262 154.86 418.652 154.86C417.392 154.86 416.622 155.56 416.342 156.33V155H415.012V162ZM425.842 161.02H425.772C424.722 161.02 423.966 160.18 423.966 158.5C423.966 156.82 424.722 155.98 425.772 155.98H425.842C426.892 155.98 427.676 156.89 427.676 158.5C427.676 160.11 426.892 161.02 425.842 161.02ZM425.492 162.14C426.402 162.14 427.256 161.72 427.746 160.88V162H429.006V152.2H427.676V156.05C427.256 155.28 426.472 154.86 425.562 154.86C423.672 154.86 422.636 156.26 422.636 158.5C422.636 160.74 423.672 162.14 425.492 162.14ZM445.011 162V160.852H442.477V152.2H439.201V153.348H441.147V160.852H438.613V162H445.011ZM450.662 153.74V152.2H449.192V153.74H450.662ZM453.126 162V160.852H450.592V155H447.162V156.148H449.262V160.852H446.728V162H453.126ZM454.884 162H456.214V158.22C456.214 156.82 457.124 155.98 458.034 155.98H458.174C459.154 155.98 459.644 156.54 459.644 157.66V162H460.974V157.38C460.974 155.91 460.134 154.86 458.524 154.86C457.264 154.86 456.494 155.56 456.214 156.33V155H454.884V162ZM465.911 155.98H466.051C467.003 155.98 467.605 156.68 467.605 157.59H464.147C464.413 156.4 465.197 155.98 465.911 155.98ZM468.935 159.928H467.605C467.465 160.67 466.835 161.02 466.093 161.02C465.141 161.02 464.133 160.32 464.049 158.71H468.949V158.01C468.949 156.218 467.773 154.86 465.981 154.86C464.315 154.86 462.719 156.064 462.719 158.486C462.719 160.936 464.301 162.14 466.051 162.14C467.493 162.14 468.711 161.37 468.935 159.928ZM482.056 162H484.856V160.838H482.476C482.056 160.838 481.916 160.698 481.916 160.278V156.148H484.366V155H481.916V152.732H480.586V155H478.626V156.148H480.586V160.53C480.586 161.51 481.076 162 482.056 162ZM489.792 162.14C491.752 162.14 493.152 160.74 493.152 158.5C493.152 156.33 491.682 154.86 489.792 154.86C487.902 154.86 486.432 156.33 486.432 158.5C486.432 160.74 487.832 162.14 489.792 162.14ZM489.862 161.02H489.722C488.602 161.02 487.762 160.11 487.762 158.5C487.762 156.89 488.602 155.98 489.722 155.98H489.862C490.982 155.98 491.822 156.89 491.822 158.5C491.822 160.11 490.982 161.02 489.862 161.02ZM497.767 162.14C499.727 162.14 501.127 160.74 501.127 158.5C501.127 156.33 499.657 154.86 497.767 154.86C495.877 154.86 494.407 156.33 494.407 158.5C494.407 160.74 495.807 162.14 497.767 162.14ZM497.837 161.02H497.697C496.577 161.02 495.737 160.11 495.737 158.5C495.737 156.89 496.577 155.98 497.697 155.98H497.837C498.957 155.98 499.797 156.89 499.797 158.5C499.797 160.11 498.957 161.02 497.837 161.02ZM508.808 162V160.852H506.274V152.2H502.998V153.348H504.944V160.852H502.41V162H508.808ZM525.051 158.5C525.051 156.26 524.015 154.86 522.125 154.86C521.215 154.86 520.431 155.28 520.011 156.05V152.2H518.681V162H519.941V160.88C520.431 161.72 521.285 162.14 522.195 162.14C524.015 162.14 525.051 160.74 525.051 158.5ZM520.011 158.5C520.011 156.89 520.795 155.98 521.845 155.98H521.915C522.965 155.98 523.721 156.82 523.721 158.5C523.721 160.18 522.965 161.02 521.915 161.02H521.845C520.795 161.02 520.011 160.11 520.011 158.5ZM526.347 164.8H528.797C529.707 164.8 530.337 164.17 530.337 163.26V161.86L533.207 155H531.807L529.707 160.18L527.607 155H526.137L529.077 161.86V162.84C529.077 163.33 528.797 163.68 528.307 163.68H526.347V164.8Z" fill="black"/>
<path d="M546.002 160.312C546.002 153.68 551.378 148.304 558.01 148.304H589.982C594.347 148.304 597.886 151.843 597.886 156.208V156.722C597.886 161.087 594.347 164.626 589.982 164.626H546.002V160.312Z" stroke="black" stroke-width="0.607684"/>
<path d="M565.111 163.117C561.446 163.117 558.464 160.135 558.464 156.471C558.464 152.807 561.446 149.813 565.111 149.813C568.776 149.813 571.759 152.795 571.759 156.459C571.759 160.122 568.776 163.117 565.111 163.117ZM565.111 151.405C562.318 151.405 560.043 153.679 560.043 156.471C560.043 159.263 562.318 161.537 565.111 161.537C567.904 161.537 570.179 159.263 570.179 156.471C570.179 153.679 567.904 151.405 565.111 151.405Z" fill="black"/>
<path d="M574.653 150.495H573.061V162.889H574.653V150.495Z" fill="black"/>
<path d="M581.428 162.889L573.554 157.204L574.489 155.928L582.363 161.613L581.428 162.889Z" fill="black"/>
<path d="M579.001 156.762H573.049V150.041H579.001C580.859 150.041 582.363 151.544 582.363 153.401C582.363 155.246 580.859 156.762 579.001 156.762ZM574.641 155.17H579.001C579.974 155.17 580.771 154.374 580.771 153.401C580.771 152.428 579.974 151.632 579.001 151.632H574.641V155.17Z" fill="black"/>
<path d="M589.301 162.889H583.652V150.041H589.301C592.865 150.041 595.772 152.921 595.772 156.471C595.772 160.021 592.865 162.889 589.301 162.889ZM585.257 161.31H589.301C591.993 161.31 594.18 159.137 594.18 156.471C594.18 153.805 591.993 151.62 589.301 151.62H585.257V161.31Z" fill="black"/>
<path d="M555.064 157.052C554.697 156.686 554.331 156.307 553.951 155.928C554.015 155.865 554.078 155.801 554.141 155.738C554.823 155.031 555.468 154.285 556.011 153.464C556.277 153.06 556.53 152.63 556.707 152.176C556.757 152.037 556.808 151.885 556.833 151.733C556.833 151.708 556.833 151.696 556.846 151.658C556.808 151.658 556.782 151.658 556.745 151.67C556.479 151.721 556.239 151.822 555.999 151.936C555.468 152.188 554.963 152.517 554.495 152.87C553.914 153.3 553.37 153.78 552.839 154.273C552.346 154.728 551.891 155.22 551.474 155.751C551.057 156.294 550.678 156.863 550.375 157.469C550.122 157.974 549.907 158.505 549.793 159.061C549.73 159.339 549.692 159.63 549.705 159.92C549.718 160.097 549.743 160.274 549.793 160.451C549.92 160.83 550.173 161.07 550.552 161.196C550.792 161.272 551.045 161.285 551.297 161.285C551.677 161.272 552.03 161.196 552.384 161.082C553.004 160.893 553.572 160.615 554.128 160.286C554.887 159.832 555.582 159.288 556.226 158.682C556.302 158.606 556.391 158.53 556.479 158.442C556.858 158.808 557.225 159.187 557.604 159.554C557.515 159.642 557.44 159.731 557.351 159.806C556.808 160.324 556.239 160.792 555.62 161.209C554.874 161.714 554.09 162.144 553.244 162.459C552.801 162.624 552.346 162.75 551.879 162.813C551.398 162.876 550.918 162.889 550.451 162.801C549.566 162.624 548.896 162.169 548.466 161.373C548.289 161.044 548.201 160.703 548.15 160.337C548.062 159.655 548.15 158.998 548.327 158.353C548.517 157.671 548.795 157.027 549.136 156.421C549.667 155.46 550.324 154.589 551.07 153.793C551.816 152.997 552.624 152.264 553.509 151.62C554.04 151.228 554.583 150.862 555.177 150.571C555.544 150.394 555.91 150.23 556.315 150.142C556.568 150.066 556.846 150.04 557.124 150.066C557.844 150.129 558.337 150.66 558.425 151.279C558.463 151.594 558.438 151.898 558.362 152.188C558.274 152.529 558.147 152.87 557.996 153.186C557.667 153.869 557.25 154.488 556.795 155.094C556.34 155.688 555.847 156.256 555.329 156.787C555.241 156.875 555.152 156.964 555.064 157.052Z" fill="black"/>
</svg>
